# xmcd
#
# Track frame offsets:
#	150
#	15847
#	40487
#	62457
#	82712
#	106702
#	122760
#	147240
#	161510
#	184612
#	199650
#	221947
#	237460
#	258277
#	273882
#
# Disc length: 3852 seconds
# Revision: 15
# Processed by: cddbd v1.5.2PL0 Copyright (c) Steve Scherf et al.
# Submitted via: dBpowerAMP V12.0
#
DISCID=c20f0a0f
DTITLE=B.B. King - Blues on The Bayou
DYEAR=1998
DGENRE=Blues
TTITLE0=Blues Boys Tune
TTITLE1=Bad Case of Love
TTITLE2=I'll Survive
TTITLE3=Mean Ole' World
TTITLE4=Blues Man
TTITLE5=Broken Promise
TTITLE6=Darlin' What Happened
TTITLE7=Shake it up And go
TTITLE8=Blues we Like
TTITLE9=Good Man Gone Bad
TTITLE10=If I Lost You
TTITLE11=Tell me Baby
TTITLE12=I Got Some Outside Help I Don't Need
TTITLE13=Blues in "G"
TTITLE14=If That Ain't it I Quit
EXTD=
EXTT0=
EXTT1=
EXTT2=
EXTT3=
EXTT4=
EXTT5=
EXTT6=
EXTT7=
EXTT8=
EXTT9=
EXTT10=
EXTT11=
EXTT12=
EXTT13=
EXTT14=
PLAYORDER=
